<?xml version="1.0" encoding="UTF-8"?>
<svg id="Layer_1" data-name="Layer 1" xmlns="http://www.w3.org/2000/svg" viewBox="0 0 108.66 108.66">
  <defs>
    <style>
      .cls-1 {
        fill: #ff5a00;
      }

      .cls-2 {
        fill: #fff;
      }
    </style>
  </defs>
  <rect class="cls-1" width="108.66" height="108.66" rx="15.06" ry="15.06"/>
  <g>
    <rect class="cls-2" x="28.42" y="34.6" width="9.39" height="7.17"/>
    <path class="cls-2" d="M78.62,34.6v7.17h-17.61v-7.17h17.61ZM61,73.91V30.84c0-2.62.54-4.8,1.63-6.54s2.57-3.04,4.43-3.92,3.91-1.32,6.13-1.32c1.62,0,3.05.13,4.29.39s2.16.49,2.74.7l-1.86,7.1c-.4-.12-.88-.24-1.46-.37s-1.25-.19-2.02-.19c-1.71,0-2.94.42-3.67,1.27s-1.11,2.04-1.11,3.59v42.36h-9.11Z"/>
    <path class="cls-2" d="M61.51,41.77v19.55h0v8.55c0,2.18-.49,4.12-1.46,5.84-.97,1.71-2.34,3.05-4.11,4.03-1.77.97-3.86,1.46-6.28,1.46s-4.51-.49-6.28-1.46c-1.77-.97-3.14-2.31-4.11-4.03-.97-1.71-1.46-3.66-1.46-5.84v-18.8h-9.39v19.58c0,3.73.88,7.01,2.64,9.86s4.23,5.07,7.42,6.68c3.19,1.61,6.91,2.41,11.18,2.41s7.99-.8,11.16-2.41c3.18-1.61,5.65-3.83,7.42-6.68s2.38-6.13,2.38-9.86v-28.87"/>
  </g>
</svg>